<svg xmlns="http://www.w3.org/2000/svg" xmlns:xlink="http://www.w3.org/1999/xlink" width="15" height="18" viewBox="0 0 15 18">
  <defs>
    <clipPath id="clip-out">
      <rect width="15" height="18"/>
    </clipPath>
  </defs>
  <g id="out" clip-path="url(#clip-out)">
    <g id="Group_12500" data-name="Group 12500" transform="translate(72.764 -2.119)">
      <g id="Group_12499" data-name="Group 12499" transform="translate(-69.404 5.137)">
        <path id="Path_12655" data-name="Path 12655" d="M-61.36,16.347h-.247l-.015-.009a5.528,5.528,0,0,1-.5-.339l0,0c-.625-.527-1.258-1.066-1.871-1.588l-.789-.672,0,0a.5.5,0,0,0-.346-.14.5.5,0,0,0-.346.14l0,0c-.871.734-1.763,1.488-2.651,2.244l-.027.026c-.151.15-.34.336-.532.336h-.015l-.053,0h-.169l-.01,0a.652.652,0,0,1-.447-.537,1.355,1.355,0,0,1-.011-.214c0-1.344,0-2.709,0-4.03,0-1.752,0-3.564,0-5.346a1.068,1.068,0,0,1,.312-.757,1.068,1.068,0,0,1,.755-.317h6.418a1,1,0,0,1,.7.283,1,1,0,0,1,.3.692c0,.019,0,.039,0,.058v9.469a.672.672,0,0,1-.094.425.672.672,0,0,1-.34.279Zm-.211-.13h.188a.537.537,0,0,0,.339-.566V6.167c0-.017,0-.034,0-.05a.87.87,0,0,0-.874-.85h-6.418a.947.947,0,0,0-.938.943c.006,1.782,0,3.594,0,5.346,0,1.321,0,2.686,0,4.03h0a1.226,1.226,0,0,0,.01.195.522.522,0,0,0,.348.427h.252a1,1,0,0,0,.406-.3l.029-.028,0,0c.888-.756,1.78-1.511,2.651-2.245a.625.625,0,0,1,.435-.175.624.624,0,0,1,.435.175l.788.671c.612.521,1.244,1.06,1.869,1.587A5.4,5.4,0,0,0-61.571,16.217Z" transform="translate(69.404 -5.137)" fill="#3580ff" stroke="#3580ff" stroke-width="0.5"/>
      </g>
    </g>
  </g>
</svg>
