<svg class="svg-icon" style="width: 1em; height: 1em;vertical-align: middle;fill: currentColor;overflow: hidden;" viewBox="0 0 1024 1024" version="1.1" xmlns="http://www.w3.org/2000/svg"><path d="M490.2 990.1c-5.9 0-11.9-0.1-17.8-0.3-50.6-1.9-100.4-11.8-147.9-29.3-47.6-17.6-91.8-42.4-131.5-73.9-40.6-32.2-75.6-70.7-103.9-114.4S39.9 680.9 27 630.7c-12.6-49-17.2-99.6-13.9-150.2s14.6-100.1 33.5-147c19.4-48.1 46.3-92.6 80.1-132.1 33.8-39.6 73.5-73.1 118-99.7 43.5-26 90.6-44.8 140-56S484.8 31.2 535.2 36c51.6 4.9 101.9 18.1 149.4 39.3 20.2 9 29.2 32.6 20.3 52.8-9 20.2-32.6 29.2-52.8 20.3-39.6-17.6-81.5-28.6-124.4-32.7-42-4-84.1-1.3-125.3 8s-80.4 25-116.6 46.6c-37 22.1-70.1 50.1-98.3 83s-50.6 70-66.7 110c-15.7 39.1-25.1 80.3-27.9 122.5C90.1 528 94 570 104.4 610.9c10.7 41.8 28.1 81.5 51.7 117.8 23.6 36.4 52.7 68.4 86.5 95.2 33 26.2 69.9 46.9 109.5 61.5s81.1 22.9 123.2 24.4c43.1 1.6 86.1-3.8 127.6-16.1 41.6-12.3 80.6-31.1 115.9-55.9 34.5-24.2 64.8-53.7 90.1-87.5s44.9-71.2 58.4-111.2c13.8-40.9 20.8-83.6 20.8-127v-40.7c0-22.1 17.9-40 40-40s40 17.9 40 40v40.7c0 52.1-8.4 103.4-25 152.5-16.2 48-39.8 92.9-70.1 133.5s-66.8 76-108.2 105.1c-42.4 29.8-89.3 52.4-139.2 67.2-44.1 13.1-89.6 19.7-135.4 19.7z" fill="#C69C6D" /><path d="M490.1 639.9c-10.6 0-20.8-4.2-28.3-11.7L330.4 496.7c-15.6-15.6-15.6-40.9 0-56.6 15.6-15.6 40.9-15.6 56.6 0l103.1 103.1L943.7 89.7c15.6-15.6 40.9-15.6 56.6 0s15.6 40.9 0 56.6L518.4 628.2c-7.5 7.5-17.7 11.7-28.3 11.7z" fill="#C69C6D" /></svg>