<svg id="Group_305" data-name="Group 305" xmlns="http://www.w3.org/2000/svg" xmlns:xlink="http://www.w3.org/1999/xlink" width="22.033" height="19.364" viewBox="0 0 22.033 19.364">
  <defs>
    <clipPath id="clip-path">
      <rect id="Rectangle_1560" data-name="Rectangle 1560" width="22.033" height="19.364" fill="silver"/>
    </clipPath>
  </defs>
  <g id="Group_304" data-name="Group 304" clip-path="url(#clip-path)">
    <path id="Path_321" data-name="Path 321" d="M22.033,3.1V17.639a.222.222,0,0,0-.027.058,1.97,1.97,0,0,1-2.03,1.666q-8.96-.012-17.92,0A1.946,1.946,0,0,1,0,17.311Q0,10.332,0,3.353c0-.531.242-.771.778-.771H6.5c0-.226,0-.419,0-.612A1.84,1.84,0,0,1,7.3.387,5.119,5.119,0,0,1,8.22,0h5.594a.239.239,0,0,0,.057.028A1.931,1.931,0,0,1,15.535,2.01c0,.184,0,.368,0,.571h.275c1.8,0,3.6.007,5.4-.005a.74.74,0,0,1,.826.522m-7.789,8.518c0,.208,0,.386,0,.565a.654.654,0,0,1-.715.725q-2.517,0-5.034,0a.651.651,0,0,1-.705-.714c0-.19,0-.38,0-.576h-3.5a1.954,1.954,0,0,1-2.014-1.454L1.386,7.494c-.019-.057-.04-.114-.06-.171l-.035.008v.208q0,4.86,0,9.721c0,.58.228.811.8.811H19.949c.56,0,.793-.235.793-.8q0-4.871,0-9.742v-.2a.324.324,0,0,0-.092.154l-.9,2.688a1.952,1.952,0,0,1-2,1.445H14.244Zm0-1.291H17.7a.722.722,0,0,0,.849-.613q.683-2.047,1.366-4.094c.192-.576.382-1.152.576-1.737H1.554c.012.045.019.079.03.112q.97,2.913,1.943,5.825a.661.661,0,0,0,.73.506q1.678,0,3.356,0c.055,0,.109-.009.177-.015,0-.212,0-.412,0-.612a.64.64,0,0,1,.669-.662q2.56-.006,5.12,0a.639.639,0,0,1,.664.667c0,.2,0,.4,0,.622m0-7.751c0-.2,0-.39,0-.575a.652.652,0,0,0-.71-.707c-.559,0-1.118,0-1.676,0q-1.676,0-3.353,0a.636.636,0,0,0-.7.533,6.256,6.256,0,0,0-.006.75Zm-1.3,7.766H9.1v1.265h3.846Z" transform="translate(0)" fill="silver"/>
  </g>
</svg>
